<?xml version="1.0" encoding="UTF-8"?>
<svg id="Camada_2" data-name="Camada 2" xmlns="http://www.w3.org/2000/svg" viewBox="0 0 429.52 168.28">
  <defs>
    <style>
      .cls-1 {
        fill: #fff;
      }

      .cls-2 {
        font-size: 42px;
      }

      .cls-2, .cls-3, .cls-4 {
        font-family: CocogooseProTrial-Bold, CocogooseProTrial;
        font-weight: 700;
      }

      .cls-2, .cls-4, .cls-5 {
        fill: #9abc1e;
      }

      .cls-3 {
        fill: #c7ccdb;
        font-size: 71.31px;
      }

      .cls-4 {
        font-size: 65.01px;
      }

      .cls-5 {
        stroke-miterlimit: 66.67;
      }

      .cls-5, .cls-6 {
        stroke: #c7ccdb;
        stroke-width: 20px;
      }

      .cls-6 {
        fill: none;
        stroke-linecap: round;
        stroke-linejoin: round;
      }
    </style>
  </defs>
  <g id="Logo_clinical_white_aplicação_1">
    <path class="cls-5" d="M44.86,28.28h129.49c5.5,0,9.96,4.5,9.96,10.06v100.6c0,5.56-4.46,10.06-9.96,10.06H44.86c-5.5,0-9.96-4.5-9.96-10.06V38.34c0-5.56-44.82-54.03,9.96-10.06Z"/>
    <ellipse class="cls-1" cx="74.74" cy="68.52" rx="9.96" ry="10.06"/>
    <ellipse class="cls-1" cx="144.47" cy="68.52" rx="9.96" ry="10.06"/>
    <path class="cls-6" d="M10,68.52v40.24"/>
    <path class="cls-6" d="M209.21,68.52v40.24"/>
    <path class="cls-1" d="M105.23,98.51s-13.42-.71-22.24-3.18-10.31,10.07-8.24,13.42,12.41,6.53,34.86,6.53,33.68-2.65,34.86-8.65c1.19-6-2.39-14.94-9.96-11.62-7.57,3.32-9.51,3.5-29.28,3.5Z"/>
    <text class="cls-3" transform="translate(292.08 94.3)"><tspan x="0" y="0">bot</tspan></text>
    <text class="cls-2" transform="translate(247.45 138.97)"><tspan x="0" y="0">{API}</tspan></text>
    <text class="cls-4" transform="translate(241.82 88.77)"><tspan x="0" y="0">ê</tspan></text>
  </g>
</svg>