<?xml version="1.0" encoding="UTF-8"?>
<svg id="Camada_2" data-name="Camada 2" xmlns="http://www.w3.org/2000/svg" viewBox="0 0 188.6 292.47">
  <defs>
    <style>
      .cls-1 {
        letter-spacing: -.04em;
      }

      .cls-2, .cls-3, .cls-4 {
        fill: #ef7a1a;
      }

      .cls-2, .cls-3, .cls-5 {
        font-family: CocogooseProTrial-Bold, CocogooseProTrial;
        font-weight: 700;
      }

      .cls-2, .cls-5 {
        font-size: 71.31px;
      }

      .cls-3 {
        font-size: 32.57px;
      }

      .cls-6, .cls-5 {
        fill: #e5e5e5;
      }

      .cls-7 {
        fill: #f18a00;
      }
    </style>
  </defs>
  <g id="Logo_clinical_white_aplicação_2">
    <text class="cls-5" transform="translate(50.26 238.06)"><tspan x="0" y="0">bot</tspan></text>
    <text class="cls-2" transform="translate(0 238.06)"><tspan x="0" y="0">ê</tspan></text>
    <text class="cls-3" transform="translate(13.86 269.75)"><tspan x="0" y="0">explo</tspan><tspan class="cls-1" x="108.06" y="0">r</tspan><tspan x="125.69" y="0">er</tspan></text>
    <path class="cls-6" d="M17.47,55.84s5.04.59,5.04,3.96,1.82,23.96,1.82,23.96c0,0-.61,6.34-5.24,6.34s-6.25-3.17-6.25-5.94v-22.38s0-4.95,4.64-5.94Z"/>
    <path class="cls-6" d="M181.74,55.84s5.04.59,5.04,3.96,1.82,23.96,1.82,23.96c0,0-.61,6.34-5.24,6.34s-6.25-3.17-6.25-5.94v-22.38s0-4.95,4.64-5.94Z"/>
    <path class="cls-4" d="M29.92,63.63c.36,6.98,6.62,50.72,55.02,94.09-1.51,19.6-1.44,17.45-1.53,18.85s-1.02,5.75.62,6.59,2.95-.11,4.76-1.75,59.97-46.84,80-104.7c17.18-52.63-139.07-14.34-138.88-13.08Z"/>
    <path class="cls-7" d="M100.18,0C67.99,0,27.15,26.6,29.57,59.93c2.42,33.33,22.69,67.79,69.28,67.79s72.61-39.05,72.61-67.79S142.65,0,100.18,0Z"/>
    <ellipse class="cls-6" cx="68.78" cy="50.96" rx="9.05" ry="8.97"/>
    <ellipse class="cls-6" cx="132.13" cy="50.96" rx="9.05" ry="8.97"/>
    <path class="cls-6" d="M96.48,77.71s-12.19-.63-20.21-2.83-9.37,8.98-7.49,11.97c1.88,2.99,11.27,5.82,31.67,5.82s30.6-2.36,31.67-7.72c1.08-5.35-2.18-13.32-9.05-10.36-6.87,2.96-8.64,3.12-26.6,3.12Z"/>
  </g>
</svg>